# xmcd
#
# Track frame offsets: 
#        150
#        11161
#        20638
#        31548
#        43809
#        54107
#        64608
#        76076
#        86475
#        96810
#        108344
#        119199
#        129516
#        136315
#        141993
#        148663
#        154272
#        162866
#        170900
#        179044
#        186192
#
# Disc length: 2717 seconds
#
# Revision: 0
# Processed by: cddbd v1.5.2PL0 Copyright (c) Steve Scherf et al.
# Submitted via: ExactAudioCopy v0.95b4
#
DISCID=270a9b15
DTITLE=Buck Owens - Country Hit Maker #1
DYEAR=1999
DGENRE=Country
TTITLE0=Down on the Corner of Love
TTITLE1=There Goes My Love
TTITLE2=Above and Beyond
TTITLE3=The House Down the Block
TTITLE4=Under the Influence of Love
TTITLE5=It Don't Show On Me
TTITLE6=Foolin Around
TTITLE7=Right After the Dance
TTITLE8=Excuse Me
TTITLE9=Loose Talk
TTITLE10=Mental Cruelty
TTITLE11=Sweethearts In Heaven
TTITLE12=You're for Me
TTITLE13=Blue Love
TTITLE14=Please Don't Take Her Love From Me
TTITLE15=Three Dimensional Love
TTITLE16=Why Don't Mommy Stay With Daddy and Me
TTITLE17=When I Hold You
TTITLE18=Honeysuckle
TTITLE19=That Ain't Right Baby
TTITLE20=Leavin' Dirty Tracks
EXTD=
EXTT0=
EXTT1=
EXTT2=
EXTT3=
EXTT4=
EXTT5=
EXTT6=
EXTT7=
EXTT8=
EXTT9=
EXTT10=
EXTT11=
EXTT12=
EXTT13=
EXTT14=
EXTT15=
EXTT16=
EXTT17=
EXTT18=
EXTT19=
EXTT20=
PLAYORDER=
